<?xml version="1.0" encoding="UTF-8" standalone="no"?>
<svg
   width="0.853333in"
   height="0.853333in"
   viewBox="0 0 256 256"
   version="1.1"
   id="svg1"
   sodipodi:docname="pu.svg"
   inkscape:version="1.3 (0e150ed6c4, 2023-07-21)"
   xmlns:inkscape="http://www.inkscape.org/namespaces/inkscape"
   xmlns:sodipodi="http://sodipodi.sourceforge.net/DTD/sodipodi-0.dtd"
   xmlns="http://www.w3.org/2000/svg"
   xmlns:svg="http://www.w3.org/2000/svg">
  <defs
     id="defs1" />
  <sodipodi:namedview
     id="namedview1"
     pagecolor="#ffffff"
     bordercolor="#000000"
     borderopacity="0.25"
     inkscape:showpageshadow="2"
     inkscape:pageopacity="0.0"
     inkscape:pagecheckerboard="0"
     inkscape:deskcolor="#d1d1d1"
     inkscape:document-units="in"
     inkscape:zoom="9.80225"
     inkscape:cx="40.908975"
     inkscape:cy="41.062001"
     inkscape:window-width="1920"
     inkscape:window-height="1007"
     inkscape:window-x="0"
     inkscape:window-y="0"
     inkscape:window-maximized="1"
     inkscape:current-layer="svg1" />
  <path
     id="Selection #1"
     fill="none"
     stroke="black"
     stroke-width="1"
     d="M 45.00,23.00            C 57.10,22.99 65.54,20.06 77.00,18.29              102.89,14.30 128.88,10.74 155.00,8.91              155.00,8.91 165.00,8.00 165.00,8.00              165.00,8.00 182.00,7.00 182.00,7.00              182.00,7.00 190.00,7.00 190.00,7.00              199.50,7.12 199.64,9.04 205.45,15.58              207.73,18.15 209.81,19.60 211.11,23.00              211.11,23.00 213.08,42.00 213.08,42.00              213.08,42.00 215.00,75.00 215.00,75.00              215.00,75.00 216.00,88.00 216.00,88.00              216.00,88.00 216.00,104.00 216.00,104.00              216.00,104.00 217.00,120.00 217.00,120.00              217.00,120.00 217.00,149.00 217.00,149.00              217.00,149.00 218.00,165.00 218.00,165.00              218.00,165.00 218.00,191.00 218.00,191.00              218.00,191.00 219.00,208.00 219.00,208.00              219.00,208.00 218.43,239.00 218.43,239.00              216.71,244.99 211.12,248.48 205.00,247.80              195.95,246.79 194.04,239.69 194.00,232.00              194.00,232.00 194.00,228.00 194.00,228.00              164.96,228.00 130.82,231.83 102.00,236.27              102.00,236.27 76.00,240.58 76.00,240.58              76.00,240.58 68.00,241.67 68.00,241.67              58.77,243.64 44.29,247.98 40.57,235.00              39.91,232.72 40.00,229.41 40.00,227.00              40.00,227.00 40.00,207.00 40.00,207.00              40.00,207.00 39.04,197.00 39.04,197.00              39.04,197.00 39.04,187.00 39.04,187.00              39.04,187.00 38.00,170.00 38.00,170.00              38.00,170.00 37.09,160.00 37.09,160.00              37.09,160.00 35.00,137.00 35.00,137.00              35.00,137.00 35.00,129.00 35.00,129.00              35.00,129.00 25.87,54.00 25.87,54.00              25.87,54.00 19.13,21.00 19.13,21.00              19.44,13.55 25.62,8.38 33.00,9.20              40.62,10.05 43.92,16.15 45.00,23.00 Z            M 187.00,32.00            C 187.00,32.00 170.00,33.00 170.00,33.00              170.00,33.00 149.00,34.83 149.00,34.83              149.00,34.83 123.00,37.28 123.00,37.28              123.00,37.28 89.00,42.28 89.00,42.28              89.00,42.28 51.00,48.00 51.00,48.00              51.00,48.00 53.72,68.00 53.72,68.00              53.72,68.00 57.83,105.00 57.83,105.00              57.83,105.00 63.00,165.00 63.00,165.00              63.00,165.00 64.00,183.00 64.00,183.00              64.00,183.00 65.00,216.00 65.00,216.00              65.00,216.00 112.00,209.27 112.00,209.27              138.79,205.41 165.94,203.00 193.00,203.00              193.00,203.00 192.00,124.00 192.00,124.00              192.00,124.00 191.00,109.00 191.00,109.00              191.00,109.00 191.00,94.00 191.00,94.00              191.00,94.00 190.00,75.00 190.00,75.00              190.00,75.00 189.00,56.00 189.00,56.00              189.00,56.00 187.00,32.00 187.00,32.00 Z            M 120.00,51.57            C 134.73,49.04 136.13,59.77 136.00,71.00              135.89,79.62 131.76,86.89 122.00,85.80              107.30,84.16 110.08,61.50 112.85,57.02              114.81,53.86 116.71,52.86 120.00,51.57 Z            M 164.00,54.53            C 171.72,53.34 178.84,56.43 179.80,65.00              180.65,72.59 176.04,75.68 171.00,80.16              166.52,84.15 163.54,87.53 157.00,86.80              150.00,86.02 145.44,79.92 146.20,73.00              147.14,64.46 156.25,56.84 164.00,54.53 Z            M 73.00,58.57            C 76.71,57.93 79.49,57.89 83.00,59.57              89.53,62.70 98.64,75.49 97.80,83.00              97.02,89.99 90.91,94.57 84.00,93.80              77.89,93.12 74.54,88.57 71.14,84.00              69.44,81.72 66.44,78.34 65.31,76.00              61.72,68.52 65.71,61.43 73.00,58.57 Z            M 106.00,94.53            C 111.35,93.65 122.17,93.94 128.00,94.00              156.72,94.34 189.84,107.39 190.00,141.00              190.08,158.81 184.44,170.29 171.99,183.00              168.13,186.93 163.89,191.00 159.00,193.60              152.94,196.83 137.74,202.10 131.00,202.91              131.00,202.91 114.00,202.91 114.00,202.91              108.81,202.93 104.90,201.90 100.00,200.25              82.35,194.31 69.23,174.38 69.00,156.00              69.00,156.00 69.00,144.00 69.00,144.00              69.07,138.52 70.49,133.11 72.46,128.00              75.78,119.37 80.56,113.51 87.00,107.00              93.89,100.04 96.43,97.35 106.00,94.53 Z            M 113.01,119.56            C 108.23,120.80 107.35,122.39 104.00,126.00              101.37,128.84 98.96,131.49 97.24,135.00              92.40,144.84 92.66,161.18 99.93,169.79              106.27,177.31 117.74,179.04 127.00,177.70              133.49,176.77 144.75,172.97 149.99,169.07              161.72,160.34 170.96,141.85 159.52,129.13              151.86,120.61 135.59,119.96 125.00,119.56              119.82,119.70 119.14,118.64 113.01,119.56 Z            M 144.00,132.57            C 157.52,130.24 163.38,142.49 157.91,152.00              153.57,159.55 138.35,167.51 130.00,169.96              119.87,172.93 113.24,168.38 106.00,161.83              103.77,159.82 100.37,156.54 98.85,154.00              94.27,146.30 98.96,136.21 108.00,135.20              112.07,134.75 115.74,136.03 119.00,138.41              121.00,139.88 123.48,142.71 126.00,142.98              130.27,143.43 138.12,134.87 144.00,132.57 Z"
     style="fill:#ffffff;fill-opacity:1;stroke:#ffffff;stroke-opacity:1" />
</svg>
