<?xml version="1.0" encoding="UTF-8" standalone="no"?>
<svg
   width="0.853333in"
   height="0.853333in"
   viewBox="0 0 256 256"
   version="1.1"
   id="svg1"
   sodipodi:docname="kalama.svg"
   inkscape:version="1.3 (0e150ed6c4, 2023-07-21)"
   xmlns:inkscape="http://www.inkscape.org/namespaces/inkscape"
   xmlns:sodipodi="http://sodipodi.sourceforge.net/DTD/sodipodi-0.dtd"
   xmlns="http://www.w3.org/2000/svg"
   xmlns:svg="http://www.w3.org/2000/svg">
  <defs
     id="defs1" />
  <sodipodi:namedview
     id="namedview1"
     pagecolor="#ffffff"
     bordercolor="#000000"
     borderopacity="0.25"
     inkscape:showpageshadow="2"
     inkscape:pageopacity="0.0"
     inkscape:pagecheckerboard="0"
     inkscape:deskcolor="#d1d1d1"
     inkscape:document-units="in"
     inkscape:zoom="9.80225"
     inkscape:cx="40.908975"
     inkscape:cy="41.062001"
     inkscape:window-width="1920"
     inkscape:window-height="1007"
     inkscape:window-x="0"
     inkscape:window-y="0"
     inkscape:window-maximized="1"
     inkscape:current-layer="svg1" />
  <path
     id="Selection #4"
     fill="none"
     stroke="black"
     stroke-width="1"
     d="M 122.00,11.57            C 134.50,9.42 137.98,17.18 138.00,28.00              138.00,28.00 138.00,58.00 138.00,58.00              138.00,58.00 137.04,70.00 137.04,70.00              137.04,70.00 137.04,83.00 137.04,83.00              136.99,92.47 133.95,103.13 122.00,101.80              115.78,101.10 111.40,96.20 111.13,90.00              111.13,90.00 112.04,79.00 112.04,79.00              112.04,79.00 112.04,65.00 112.04,65.00              112.04,65.00 113.00,53.00 113.00,53.00              113.00,53.00 113.00,26.00 113.00,26.00              113.09,18.52 114.63,14.46 122.00,11.57 Z            M 218.00,40.53            C 225.72,39.34 232.84,42.43 233.80,51.00              234.77,59.67 228.35,62.80 223.01,68.04              223.01,68.04 196.70,100.00 196.70,100.00              192.30,105.14 187.39,110.62 180.00,109.80              173.00,109.02 168.44,102.92 169.20,96.00              169.89,89.70 175.57,84.77 179.34,80.00              179.34,80.00 202.91,52.00 202.91,52.00              208.60,45.86 209.48,43.07 218.00,40.53 Z            M 34.00,48.57            C 43.30,46.97 46.95,51.61 52.91,58.00              52.91,58.00 74.00,81.00 74.00,81.00              78.18,85.19 84.11,89.82 84.80,96.00              85.72,104.28 79.23,110.63 71.00,109.80              64.60,109.16 60.26,104.52 56.17,100.00              56.17,100.00 39.96,82.00 39.96,82.00              35.94,77.79 29.41,72.01 26.77,67.00              22.67,59.22 26.04,51.70 34.00,48.57 Z            M 41.00,132.57            C 41.00,132.57 93.00,132.00 93.00,132.00              93.00,132.00 189.00,132.00 189.00,132.00              189.00,132.00 203.00,133.00 203.00,133.00              206.59,133.02 212.81,132.66 216.00,133.89              223.44,136.75 225.31,145.85 224.91,153.00              224.39,162.10 221.99,170.66 218.42,179.00              218.42,179.00 211.67,193.00 211.67,193.00              209.67,196.16 206.86,199.15 204.42,202.00              182.86,227.18 149.83,240.38 117.00,240.00              102.32,239.82 81.78,231.69 70.00,223.07              65.81,220.01 63.67,217.49 60.00,214.17              47.51,202.89 41.49,197.81 34.72,182.00              32.82,177.57 30.09,169.68 29.32,165.00              27.49,153.79 28.91,137.32 41.00,132.57 Z            M 198.00,158.00            C 198.00,158.00 183.00,157.00 183.00,157.00              183.00,157.00 54.00,157.00 54.00,157.00              55.31,171.50 62.03,181.01 72.00,191.00              85.13,204.14 99.10,212.97 118.00,214.83              124.42,215.46 136.67,213.09 143.00,211.29              168.52,204.04 194.05,186.03 198.00,158.00 Z"
     style="fill:#ffffff;fill-opacity:1;stroke:#ffffff;stroke-opacity:1" />
</svg>
