<?xml version="1.0" encoding="UTF-8" standalone="no"?>
<svg
   width="0.853333in"
   height="0.853333in"
   viewBox="0 0 256 256"
   version="1.1"
   id="svg1"
   sodipodi:docname="ku-lili.svg"
   inkscape:version="1.3 (0e150ed6c4, 2023-07-21)"
   xmlns:inkscape="http://www.inkscape.org/namespaces/inkscape"
   xmlns:sodipodi="http://sodipodi.sourceforge.net/DTD/sodipodi-0.dtd"
   xmlns="http://www.w3.org/2000/svg"
   xmlns:svg="http://www.w3.org/2000/svg">
  <defs
     id="defs1" />
  <sodipodi:namedview
     id="namedview1"
     pagecolor="#ffffff"
     bordercolor="#000000"
     borderopacity="0.25"
     inkscape:showpageshadow="2"
     inkscape:pageopacity="0.0"
     inkscape:pagecheckerboard="0"
     inkscape:deskcolor="#d1d1d1"
     inkscape:document-units="in"
     inkscape:zoom="9.80225"
     inkscape:cx="40.908975"
     inkscape:cy="41.062001"
     inkscape:window-width="1920"
     inkscape:window-height="1007"
     inkscape:window-x="0"
     inkscape:window-y="0"
     inkscape:window-maximized="1"
     inkscape:current-layer="svg1" />
  <path
     id="Selection #3"
     fill="none"
     stroke="black"
     stroke-width="1"
     d="M 45.00,23.00            C 57.10,22.99 65.54,20.06 77.00,18.29              102.89,14.30 128.88,10.74 155.00,8.91              155.00,8.91 165.00,8.00 165.00,8.00              165.00,8.00 182.00,7.00 182.00,7.00              182.00,7.00 190.00,7.00 190.00,7.00              199.50,7.12 199.64,9.04 205.45,15.58              207.73,18.15 209.81,19.60 211.11,23.00              211.11,23.00 213.08,42.00 213.08,42.00              213.08,42.00 215.00,75.00 215.00,75.00              215.00,75.00 216.00,88.00 216.00,88.00              216.00,88.00 216.00,104.00 216.00,104.00              216.00,104.00 217.00,120.00 217.00,120.00              217.00,120.00 217.00,149.00 217.00,149.00              217.00,149.00 218.00,165.00 218.00,165.00              218.00,165.00 218.00,191.00 218.00,191.00              218.00,191.00 219.00,208.00 219.00,208.00              219.00,208.00 218.43,239.00 218.43,239.00              216.71,244.99 211.12,248.48 205.00,247.80              195.95,246.79 194.04,239.69 194.00,232.00              194.00,232.00 194.00,228.00 194.00,228.00              164.96,228.00 130.82,231.83 102.00,236.27              102.00,236.27 76.00,240.58 76.00,240.58              76.00,240.58 68.00,241.67 68.00,241.67              58.77,243.64 44.29,247.98 40.57,235.00              39.91,232.72 40.00,229.41 40.00,227.00              40.00,227.00 40.00,207.00 40.00,207.00              40.00,207.00 39.04,197.00 39.04,197.00              39.04,197.00 39.04,187.00 39.04,187.00              39.04,187.00 38.00,170.00 38.00,170.00              38.00,170.00 37.09,160.00 37.09,160.00              37.09,160.00 35.00,137.00 35.00,137.00              35.00,137.00 35.00,129.00 35.00,129.00              35.00,129.00 25.87,54.00 25.87,54.00              25.87,54.00 19.13,21.00 19.13,21.00              19.44,13.55 25.62,8.38 33.00,9.20              40.62,10.05 43.92,16.15 45.00,23.00 Z            M 147.00,35.00            C 147.00,35.00 81.00,43.43 81.00,43.43              81.00,43.43 51.00,48.00 51.00,48.00              51.00,48.00 53.72,68.00 53.72,68.00              53.72,68.00 57.83,105.00 57.83,105.00              57.83,105.00 63.00,165.00 63.00,165.00              63.00,165.00 64.00,183.00 64.00,183.00              64.00,183.00 65.00,216.00 65.00,216.00              65.00,216.00 95.00,212.00 95.00,212.00              95.00,212.00 82.11,158.00 82.11,158.00              78.70,144.37 71.16,116.00 71.00,103.00              70.96,99.02 70.70,93.69 72.15,90.00              74.52,83.94 86.51,74.67 92.00,70.80              92.00,70.80 108.00,60.82 108.00,60.82              108.00,60.82 131.00,45.53 131.00,45.53              136.64,41.97 142.15,39.75 147.00,35.00 Z            M 188.00,43.00            C 176.68,45.66 175.43,49.31 167.00,53.97              167.00,53.97 145.00,66.23 145.00,66.23              145.00,66.23 118.00,84.10 118.00,84.10              118.00,84.10 103.00,93.49 103.00,93.49              100.44,95.27 97.15,96.93 96.30,100.17              95.70,102.47 96.53,106.59 96.87,109.00              96.87,109.00 102.11,133.00 102.11,133.00              102.11,133.00 110.89,172.00 110.89,172.00              113.25,181.42 117.97,198.92 118.00,208.00              118.00,208.00 136.00,206.09 136.00,206.09              136.00,206.09 193.00,203.00 193.00,203.00              193.00,203.00 192.00,124.00 192.00,124.00              192.00,124.00 191.00,109.00 191.00,109.00              191.00,109.00 191.00,94.00 191.00,94.00              191.00,94.00 190.00,78.00 190.00,78.00              190.00,78.00 189.00,56.00 189.00,56.00              189.00,56.00 188.00,43.00 188.00,43.00 Z            M 145.00,136.00            C 146.03,130.61 148.57,125.96 154.00,123.89              162.94,120.48 171.72,127.63 170.80,137.00              170.40,141.06 166.59,149.03 164.77,153.00              163.31,156.19 162.21,159.26 159.78,161.90              153.01,169.23 142.72,169.67 135.00,163.61              131.73,161.04 129.56,158.02 126.83,155.00              121.86,149.49 116.27,145.31 117.20,137.00              117.85,131.23 122.23,126.85 128.00,126.20              136.43,125.26 139.26,131.53 145.00,136.00 Z"
     style="fill:#ffffff;fill-opacity:1;stroke:#ffffff;stroke-opacity:1" />
</svg>
