<?xml version="1.0" encoding="UTF-8" standalone="no"?>
<svg
   width="0.853333in"
   height="0.853333in"
   viewBox="0 0 256 256"
   version="1.1"
   id="svg1"
   sodipodi:docname="lipu-ala.svg"
   inkscape:version="1.3 (0e150ed6c4, 2023-07-21)"
   xmlns:inkscape="http://www.inkscape.org/namespaces/inkscape"
   xmlns:sodipodi="http://sodipodi.sourceforge.net/DTD/sodipodi-0.dtd"
   xmlns="http://www.w3.org/2000/svg"
   xmlns:svg="http://www.w3.org/2000/svg">
  <defs
     id="defs1" />
  <sodipodi:namedview
     id="namedview1"
     pagecolor="#ffffff"
     bordercolor="#000000"
     borderopacity="0.25"
     inkscape:showpageshadow="2"
     inkscape:pageopacity="0.0"
     inkscape:pagecheckerboard="0"
     inkscape:deskcolor="#d1d1d1"
     inkscape:document-units="in"
     inkscape:zoom="9.80225"
     inkscape:cx="40.908975"
     inkscape:cy="41.062001"
     inkscape:window-width="1920"
     inkscape:window-height="1007"
     inkscape:window-x="0"
     inkscape:window-y="0"
     inkscape:window-maximized="1"
     inkscape:current-layer="svg1" />
  <path
     id="Selection"
     fill="none"
     stroke="black"
     stroke-width="1"
     d="M 45.00,23.00            C 57.10,22.99 65.54,20.06 77.00,18.29              102.89,14.30 128.88,10.74 155.00,8.91              155.00,8.91 165.00,8.00 165.00,8.00              165.00,8.00 182.00,7.00 182.00,7.00              182.00,7.00 190.00,7.00 190.00,7.00              199.50,7.12 199.64,9.04 205.45,15.58              207.73,18.15 209.81,19.60 211.11,23.00              211.11,23.00 213.08,42.00 213.08,42.00              213.08,42.00 215.00,75.00 215.00,75.00              215.00,75.00 216.00,88.00 216.00,88.00              216.00,88.00 216.00,104.00 216.00,104.00              216.00,104.00 217.00,120.00 217.00,120.00              217.00,120.00 217.00,149.00 217.00,149.00              217.00,149.00 218.00,165.00 218.00,165.00              218.00,165.00 218.00,191.00 218.00,191.00              218.00,191.00 219.00,208.00 219.00,208.00              219.00,208.00 218.43,239.00 218.43,239.00              216.71,244.99 211.12,248.48 205.00,247.80              195.95,246.79 194.04,239.69 194.00,232.00              194.00,232.00 194.00,228.00 194.00,228.00              164.96,228.00 130.82,231.83 102.00,236.27              102.00,236.27 76.00,240.58 76.00,240.58              76.00,240.58 68.00,241.67 68.00,241.67              58.77,243.64 44.29,247.98 40.57,235.00              39.91,232.72 40.00,229.41 40.00,227.00              40.00,227.00 40.00,207.00 40.00,207.00              40.00,207.00 39.04,197.00 39.04,197.00              39.04,197.00 39.04,187.00 39.04,187.00              39.04,187.00 38.00,170.00 38.00,170.00              38.00,170.00 37.09,160.00 37.09,160.00              37.09,160.00 35.00,137.00 35.00,137.00              35.00,137.00 35.00,129.00 35.00,129.00              35.00,129.00 25.87,54.00 25.87,54.00              25.87,54.00 19.13,21.00 19.13,21.00              19.44,13.55 25.62,8.38 33.00,9.20              40.62,10.05 43.92,16.15 45.00,23.00 Z            M 187.00,32.00            C 187.00,32.00 170.00,33.00 170.00,33.00              170.00,33.00 149.00,34.83 149.00,34.83              149.00,34.83 123.00,37.28 123.00,37.28              123.00,37.28 89.00,42.28 89.00,42.28              89.00,42.28 51.00,48.00 51.00,48.00              51.00,48.00 53.72,68.00 53.72,68.00              53.72,68.00 57.83,105.00 57.83,105.00              57.83,105.00 63.00,165.00 63.00,165.00              63.00,165.00 64.00,183.00 64.00,183.00              64.00,183.00 65.00,216.00 65.00,216.00              65.00,216.00 112.00,209.27 112.00,209.27              138.79,205.41 165.94,203.00 193.00,203.00              193.00,203.00 192.00,124.00 192.00,124.00              192.00,124.00 191.00,109.00 191.00,109.00              191.00,109.00 191.00,94.00 191.00,94.00              191.00,94.00 190.00,75.00 190.00,75.00              190.00,75.00 189.00,56.00 189.00,56.00              189.00,56.00 187.00,32.00 187.00,32.00 Z            M 121.00,104.00            C 123.24,96.16 136.17,76.81 141.14,69.00              143.72,64.95 146.79,58.19 150.10,55.28              158.78,47.64 171.94,54.43 170.80,66.00              170.30,71.11 166.83,76.62 164.27,81.00              164.27,81.00 147.17,109.00 147.17,109.00              145.23,112.12 138.47,122.89 138.55,126.00              138.63,129.08 144.33,135.28 146.37,138.00              146.37,138.00 163.51,162.00 163.51,162.00              166.86,166.89 170.52,170.59 169.80,177.00              169.02,183.99 162.91,188.57 156.00,187.80              146.73,186.76 137.60,170.42 132.49,163.00              131.10,160.98 127.05,154.88 124.87,154.20              120.96,152.96 117.79,162.30 116.29,165.00              116.29,165.00 106.26,183.00 106.26,183.00              103.82,187.71 101.35,193.26 96.96,196.49              88.13,202.99 76.04,195.92 77.20,185.00              77.64,180.89 81.27,174.84 83.26,171.00              83.26,171.00 98.33,143.00 98.33,143.00              100.11,139.81 104.86,132.48 104.94,129.00              105.02,125.46 100.02,119.86 97.87,117.00              97.87,117.00 82.54,96.00 82.54,96.00              78.26,90.79 73.36,87.55 74.20,80.00              74.98,73.01 81.09,68.43 88.00,69.20              93.23,69.79 96.49,73.44 99.99,77.00              99.99,77.00 121.00,104.00 121.00,104.00 Z"
     style="fill:#ffffff;fill-opacity:1;stroke:#ffffff;stroke-opacity:1" />
</svg>
