<?xml version="1.0" encoding="UTF-8" standalone="no"?>
<svg
   width="0.853333in"
   height="0.853333in"
   viewBox="0 0 256 256"
   version="1.1"
   id="svg1"
   sodipodi:docname="sona-mute.svg"
   inkscape:version="1.3 (0e150ed6c4, 2023-07-21)"
   xmlns:inkscape="http://www.inkscape.org/namespaces/inkscape"
   xmlns:sodipodi="http://sodipodi.sourceforge.net/DTD/sodipodi-0.dtd"
   xmlns="http://www.w3.org/2000/svg"
   xmlns:svg="http://www.w3.org/2000/svg">
  <defs
     id="defs1" />
  <sodipodi:namedview
     id="namedview1"
     pagecolor="#ffffff"
     bordercolor="#000000"
     borderopacity="0.25"
     inkscape:showpageshadow="2"
     inkscape:pageopacity="0.0"
     inkscape:pagecheckerboard="0"
     inkscape:deskcolor="#d1d1d1"
     inkscape:document-units="in"
     inkscape:zoom="9.80225"
     inkscape:cx="40.908975"
     inkscape:cy="41.062001"
     inkscape:window-width="1920"
     inkscape:window-height="1007"
     inkscape:window-x="0"
     inkscape:window-y="0"
     inkscape:window-maximized="1"
     inkscape:current-layer="svg1" />
  <path
     id="Selection #4"
     fill="none"
     stroke="black"
     stroke-width="1"
     d="M 119.00,6.57            C 127.09,5.18 133.45,8.70 135.18,17.00              136.72,22.17 135.43,26.06 135.18,31.00              135.18,31.00 135.18,52.00 135.18,52.00              134.89,60.62 130.76,67.89 121.00,66.80              105.49,65.07 109.98,43.46 110.00,33.00              110.01,28.62 109.52,17.56 110.89,14.00              112.48,9.85 115.06,8.12 119.00,6.57 Z            M 189.00,17.57            C 197.13,16.11 205.73,18.41 206.80,28.00              207.88,37.66 200.35,39.85 196.21,44.13              188.74,51.84 181.83,70.23 169.00,68.80              162.00,68.02 157.44,61.92 158.20,55.00              158.75,50.00 162.45,45.90 165.37,42.00              171.98,33.19 178.18,21.57 189.00,17.57 Z            M 60.00,22.57            C 74.65,20.05 82.64,36.81 87.42,48.00              89.23,52.23 91.33,56.23 90.80,61.00              90.02,67.99 83.91,72.57 77.00,71.80              67.40,70.73 65.48,61.12 61.74,54.00              57.20,45.37 44.21,35.24 55.13,25.28              56.94,23.62 57.85,23.41 60.00,22.57 Z            M 176.00,231.00            C 176.00,231.00 144.00,235.27 144.00,235.27              122.08,238.43 85.36,244.25 65.00,234.74              47.14,226.39 39.09,202.55 39.00,184.00              39.00,184.00 38.00,149.00 38.00,149.00              38.00,149.00 36.17,128.00 36.17,128.00              36.17,128.00 34.00,92.00 34.00,92.00              34.11,83.38 38.24,76.11 48.00,77.20              56.46,78.15 58.83,84.59 59.00,92.00              59.00,92.00 77.00,89.17 77.00,89.17              77.00,89.17 98.00,87.91 98.00,87.91              98.00,87.91 108.00,87.00 108.00,87.00              108.00,87.00 132.00,85.91 132.00,85.91              132.00,85.91 143.00,85.00 143.00,85.00              143.00,85.00 164.00,85.00 164.00,85.00              175.76,85.15 187.61,91.84 193.65,102.00              203.96,119.35 203.03,141.55 203.00,161.00              203.00,161.00 201.00,196.00 201.00,196.00              201.00,196.00 200.01,213.00 200.01,213.00              200.01,213.00 201.00,226.00 201.00,226.00              201.04,235.63 200.84,248.34 187.00,246.80              177.91,245.78 176.07,238.69 176.00,231.00 Z            M 175.00,206.00            C 175.00,206.00 176.00,191.00 176.00,191.00              176.00,191.00 178.00,159.00 178.00,159.00              178.00,159.00 178.00,146.00 178.00,146.00              177.90,137.49 176.26,117.37 168.79,112.36              165.05,109.86 161.27,110.01 157.00,110.00              157.00,110.00 129.00,111.09 129.00,111.09              129.00,111.09 117.00,112.00 117.00,112.00              117.00,112.00 103.00,112.91 103.00,112.91              103.00,112.91 82.00,114.17 82.00,114.17              82.00,114.17 61.00,117.00 61.00,117.00              61.00,117.00 63.00,144.00 63.00,144.00              63.00,144.00 64.00,179.00 64.00,179.00              64.01,187.15 66.62,204.09 73.11,209.44              80.62,215.64 96.82,215.09 106.00,214.17              106.00,214.17 144.00,209.72 144.00,209.72              144.00,209.72 175.00,206.00 175.00,206.00 Z            M 149.00,123.57            C 155.60,122.44 161.48,124.23 164.11,131.00              165.94,135.70 165.69,143.98 166.17,149.00              166.17,149.00 168.91,184.00 168.91,184.00              169.39,192.65 164.29,199.84 155.00,198.80              147.82,198.00 144.65,192.51 143.46,186.00              143.46,186.00 141.83,159.00 141.83,159.00              141.30,153.41 139.53,138.78 140.19,134.00              140.96,128.36 143.90,125.57 149.00,123.57 Z            M 116.00,125.57            C 123.29,124.32 129.02,126.77 131.85,134.00              133.88,139.17 134.66,155.77 135.09,162.00              135.09,162.00 137.91,188.00 137.91,188.00              138.39,196.65 133.29,203.84 124.00,202.80              116.79,201.99 113.68,196.52 112.46,190.00              112.46,190.00 109.72,160.00 109.72,160.00              109.72,160.00 107.20,136.00 107.20,136.00              107.83,130.43 111.03,127.52 116.00,125.57 Z            M 80.00,126.57            C 86.22,125.50 91.66,126.89 94.69,133.00              96.54,136.75 95.98,144.62 96.00,149.00              96.08,165.03 102.44,180.84 102.91,189.00              103.41,197.64 98.28,204.83 89.00,203.80              79.11,202.69 78.63,194.56 76.58,187.00              71.58,168.61 70.77,159.87 71.00,141.00              71.09,133.52 72.63,129.46 80.00,126.57 Z"
     style="fill:#ffffff;fill-opacity:1;stroke:#ffffff;stroke-opacity:1" />
</svg>
